# xmcd
#
# Track frame offsets: 
#        151
#        13640
#        28254
#        33241
#        43013
#        53840
#        67569
#        88064
#        95567
#        108588
#        121574
#        135810
#        149351
#        163679
#        177690
#        197598
#        210856
#        220330
#
# Disc length: 3129 seconds
#
# Revision: 1
# Processed by: cddbd v1.5.2PL0 Copyright (c) Steve Scherf et al.
# Submitted via: ExactAudioCopy v0.95b2
#
DISCID=f10c3712
DTITLE=Leadbelly - the essential: disk 1
DYEAR=1900
DGENRE=Blues
TTITLE0=C. C. Rider
TTITLE1=New Orleans
TTITLE2=Sukey Jump
TTITLE3=Whoa Back Buck
TTITLE4=It Was Early One Morning
TTITLE5=Matchbox Blues
TTITLE6=How Long
TTITLE7=Laura
TTITLE8=If It Wasn't For Dicky
TTITLE9=Baby, Don't You Love Me No More?
TTITLE10=Cow Cow Yicky/ Out On The Western Plains
TTITLE11=Where Did You Sleep Last Night?  (Black Girl)
TTITLE12=Worried Blues
TTITLE13=Alabama Bound
TTITLE14=Frankie and Albert
TTITLE15=Sweet Mary
TTITLE16=Corn Bread Rough
TTITLE17=Alberta
EXTD=ID3G: 0
EXTT0=
EXTT1=
EXTT2=
EXTT3=
EXTT4=
EXTT5=
EXTT6=
EXTT7=
EXTT8=
EXTT9=
EXTT10=
EXTT11=
EXTT12=
EXTT13=
EXTT14=
EXTT15=
EXTT16=
EXTT17=
PLAYORDER=
